Coordinates
version=1
nRows=20
nColumns=23
inDegrees=yes

Units are S.I. units (second, meters, Newtons, ...)
If the header above contains a line with 'inDegrees', this indicates whether rotational values are in degrees (yes) or radians (no).

endheader
time	pelvis_tilt	pelvis_list	pelvis_rotation	pelvis_tx	pelvis_ty	pelvis_tz	hip_flexion_r	hip_adduction_r	hip_rotation_r	knee_angle_r	knee_angle_r_beta	ankle_angle_r	subtalar_angle_r	mtp_angle_r	hip_flexion_l	hip_adduction_l	hip_rotation_l	knee_angle_l	knee_angle_l_beta	ankle_angle_l	subtalar_angle_l	mtp_angle_l
     15.00000000	    -10.53719742	     -0.32927811	      0.89951239	      2.26106453	      0.95172323	      1.01538033	    -17.25645821	     -2.24813675	    -13.16494475	     45.46145681	      0.79345210	    -11.82509330	    -15.81403573	      0.00000000	     35.44981547	      3.26201129	     -2.81819345	     14.54534240	      0.25386412	     -0.69579024	     -2.30234680	      0.00000000
     15.00666667	     -9.74813997	     -0.43736983	      0.83377579	      2.26110895	      0.95015490	      1.01475554	    -17.29850735	     -2.39710960	    -12.42252356	     49.98386143	      0.87238295	    -12.04034901	    -17.71604464	      0.00000000	     33.63917409	      3.31504521	     -2.51107376	     11.67909818	      0.20383872	     -0.93369258	     -1.56792342	      0.00000000
     15.01333333	     -9.23476332	     -0.55681408	      0.89481610	      2.26085293	      0.94774393	      1.01417290	    -16.88760750	     -2.42471063	    -11.71051626	     54.72532377	      0.95513708	    -12.01188181	    -19.17551194	      0.00000000	     32.51865986	      3.34136231	     -2.35482103	     10.01900755	      0.17486467	     -0.77395626	     -0.60057355	      0.00000000
     15.02000000	     -8.45401059	     -0.87981061	      1.34390637	      2.26032319	      0.94522197	      1.01336038	    -16.81366256	     -2.06821143	    -11.39577390	     59.23456422	      1.03383818	    -12.42954596	    -19.86249274	      0.00000000	     31.55325042	      3.30899939	     -1.85207544	      9.62186569	      0.16793324	     -0.66063744	     -0.02034895	      0.00000000
     15.02666667	     -8.06532392	     -0.34840023	      1.16076100	      2.26009937	      0.94224273	      1.01350551	    -16.02068606	     -2.60808504	    -10.39279043	     64.20827724	      1.12064584	    -12.16214080	    -21.49260916	      0.00000000	     30.47159340	      3.76328558	     -2.18650701	      8.71707488	      0.15214166	     -0.97573069	      0.25789948	      0.00000000
     15.03333333	     -7.42939394	     -0.05283208	      1.43955600	      2.25964385	      0.93907008	      1.01324727	    -15.59082674	     -2.76158319	     -9.93905366	     68.87917953	      1.20216847	    -12.17115115	    -22.28176266	      0.00000000	     29.58875500	      4.18120006	     -2.04327161	      9.10759180	      0.15895746	     -1.12825625	      0.16047478	      0.00000000
     15.04000000	     -6.64413708	      0.09269119	      1.93297328	      2.25921303	      0.93595461	      1.01284813	    -15.34300631	     -2.62431571	     -9.69205315	     73.27595269	      1.27890664	    -12.54839091	    -22.43997825	      0.00000000	     28.58364760	      4.54992219	     -1.49431397	      9.97587385	      0.17411184	     -1.44173328	      0.25238759	      0.00000000
     15.04666667	     -6.63964276	      0.66002877	      2.12244695	      2.25849166	      0.93103438	      1.01284775	    -14.01983917	     -3.17301512	     -9.38748444	     78.16131628	      1.36417232	    -11.85492485	    -22.80079114	      0.00000000	     28.90152362	      5.10192877	     -1.92952798	     12.16329337	      0.21228952	     -1.24113166	     -0.75650288	      0.00000000
     15.05333333	     -6.10335159	      1.19851147	      2.50545989	      2.25794007	      0.92663185	      1.01265263	    -13.37110595	     -3.57355530	     -9.27073921	     82.62725519	      1.44211766	    -11.74405254	    -22.86479970	      0.00000000	     28.50568451	      5.74565508	     -1.82158142	     14.43099038	      0.25186830	     -1.13011409	     -1.61891626	      0.00000000
     15.06000000	     -5.93042831	      1.55401158	      2.97117783	      2.25715655	      0.92137126	      1.01236307	    -12.22767456	     -3.86277675	     -9.30316356	     87.08304884	      1.51988592	    -11.38409770	    -22.60605167	      0.00000000	     28.71024301	      6.25341387	     -1.60664095	     17.35614773	      0.30292192	     -0.70015738	     -2.69215162	      0.00000000
     15.06666667	     -5.96332806	      1.85504545	      3.49024723	      2.25619486	      0.91551094	      1.01199509	    -10.77014993	     -4.07816466	     -9.32595504	     91.47061890	      1.59646347	    -10.96734132	    -22.24231419	      0.00000000	     29.24848898	      6.76057856	     -1.30216369	     20.72520195	      0.36172301	     -0.00505074	     -3.78690368	      0.00000000
     15.07333333	     -5.76833514	      2.29278543	      3.94121882	      2.25519269	      0.90976805	      1.01163270	     -9.52642681	     -4.56571153	     -9.38674564	     95.70198094	      1.67031467	    -10.65338307	    -21.87029694	      0.00000000	     29.38588204	      7.44063429	     -0.85912926	     24.00241304	      0.41892114	      1.09907453	     -5.17227070	      0.00000000
     15.08000000	     -6.03915349	      2.52107208	      4.45832551	      2.25385520	      0.90326775	      1.01114926	     -7.60891960	     -4.87013524	     -9.41790406	     99.90064111	      1.74359511	    -10.16942396	    -21.28920526	      0.00000000	     30.13185222	      7.99377721	     -0.38029444	     27.59159711	      0.48156422	      2.43232029	     -6.38371357	      0.00000000
     15.08666667	     -6.17925213	      2.80607636	      4.96697739	      2.25234141	      0.89696912	      1.01059484	     -5.74956983	     -5.33405906	     -9.45687672	    103.92398461	      1.81381570	     -9.67829557	    -20.63460256	      0.00000000	     30.58872421	      8.65794665	      0.15801482	     31.01631818	      0.54133687	      4.17158681	     -7.59784291	      0.00000000
     15.09333333	     -6.42020565	      3.04470954	      5.41877007	      2.25054234	      0.89071423	      1.01010547	     -3.60802379	     -5.80985012	     -9.37772192	    107.81649772	      1.88175287	     -9.14254484	    -19.94688439	      0.00000000	     31.04923824	      9.26703719	      0.60698582	     34.30511110	      0.59873714	      6.22781809	     -8.52737500	      0.00000000
     15.10000000	     -6.60009246	      3.27059187	      5.87943984	      2.24848804	      0.88486874	      1.00954049	     -1.38523198	     -6.33851307	     -9.25020498	    111.49238518	      1.94590921	     -8.58059112	    -19.20545868	      0.00000000	     31.25384155	      9.89638087	      1.12844289	     37.29770344	      0.65096773	      8.47224889	     -9.26575828	      0.00000000
     15.10666667	     -6.97155157	      3.36287915	      6.27945966	      2.24611337	      0.87920770	      1.00911486	      1.29122142	     -6.76468435	     -8.98152876	    114.99084932	      2.00696893	     -7.92621485	    -18.29796526	      0.00000000	     31.53442689	     10.31376822	      1.49087041	     40.05569093	      0.69910369	     10.76846364	     -9.58218302	      0.00000000
     15.11333333	     -7.25393919	      3.44426033	      6.62741233	      2.24351682	      0.87424764	      1.00874246	      4.07067823	     -7.18912939	     -8.58071354	    118.21417616	      2.06322660	     -7.28383949	    -17.41079874	      0.00000000	     31.45517589	     10.68416184	      1.90931946	     42.35899766	      0.73930398	     13.14270636	     -9.68406422	      0.00000000
     15.12000000	     -7.57786188	      3.43045280	      6.89299611	      2.24072142	      0.86992724	      1.00846326	      7.13738751	     -7.53039093	     -8.05410385	    121.12993251	      2.11411614	     -6.63155691	    -16.46179691	      0.00000000	     31.20352601	     10.86779051	      2.24839330	     44.26699020	      0.77260473	     15.47996047	     -9.43592559	      0.00000000
     15.12666667	     -7.87205790	      3.41959429	      7.13583437	      2.23782834	      0.86640219	      1.00819282	     10.35278534	     -7.88760077	     -7.47599725	    123.69028289	      2.15880269	     -5.99482254	    -15.44066248	      0.00000000	     30.63934788	     11.02218629	      2.65479639	     45.66944114	      0.79708212	     17.59923795	     -9.18808611	      0.00000000
